<svg width="14" height="14" viewBox="0 0 14 14" fill="none" xmlns="http://www.w3.org/2000/svg">
<path d="M10.1801 3.635C10.1801 5.38373 8.74893 6.81493 7.00021 6.81493C5.25152 6.81493 3.82031 5.38373 3.82031 3.635C3.82031 1.88628 5.25149 0.455078 7.00021 0.455078C8.74893 0.455078 10.1801 1.88628 10.1801 3.635Z" fill="#006769"/>
<path d="M12.7848 10.2695C12.6734 10.4621 12.5465 10.6452 12.4015 10.8337L12.3959 10.8412C12.1939 11.1153 11.9589 11.3662 11.7103 11.6147C11.5025 11.8225 11.265 12.0303 11.0294 12.207C9.85529 13.0838 8.44318 13.545 6.98439 13.545C5.52854 13.545 4.11924 13.0857 2.94652 12.2123C2.69181 12.0054 2.45926 11.8156 2.2585 11.6148L2.25362 11.6099L2.24859 11.6051C1.99933 11.3706 1.77936 11.1214 1.5729 10.8412L1.57059 10.8381C1.44303 10.6681 1.31093 10.483 1.20312 10.302C1.28502 10.1192 1.38887 9.92935 1.50134 9.76695L1.50668 9.75904C2.14858 8.78905 3.17562 8.14729 4.31618 7.99042L4.32989 7.98853L4.34346 7.9858C4.3613 7.98223 4.40615 7.98825 4.44153 8.01478L4.44432 8.01688C5.19125 8.56813 6.08009 8.85184 7.00025 8.85184C7.92042 8.85184 8.80928 8.56813 9.55618 8.01688L9.55898 8.01478C9.56976 8.00666 9.61792 7.98566 9.69415 7.99182C10.8279 8.15058 11.8382 8.78982 12.4964 9.76289L12.4992 9.76695C12.6113 9.92886 12.7086 10.0963 12.7848 10.2695Z" fill="#006769"/>
</svg>
