<svg width="1170" height="88" viewBox="0 0 1170 88" fill="none" xmlns="http://www.w3.org/2000/svg">
<g clip-path="url(#clip0_45_202)">
<path d="M4 82.0657H280.087C286.215 82.0657 292.196 80.1891 297.226 76.6883L391.774 10.8775C396.804 7.37663 402.785 5.5 408.913 5.5H1169" stroke="#006769"/>
<path d="M5.00572 87.9998C4.86381 88.0007 4.72487 87.9552 4.60662 87.8689C4.48836 87.7827 4.39614 87.6597 4.34173 87.5156C4.28731 87.3715 4.27315 87.2128 4.30107 87.0599C4.32898 86.9069 4.3977 86.7665 4.49846 86.6567L8.28509 82.5014L4.49846 78.3462C4.38141 78.196 4.32025 78.0027 4.32719 77.805C4.33414 77.6073 4.40868 77.4198 4.53592 77.2799C4.66316 77.14 4.83373 77.058 5.01354 77.0504C5.19336 77.0428 5.36917 77.11 5.50584 77.2387L9.7926 81.9516C9.92567 82.0988 10.0004 82.2979 10.0004 82.5054C10.0004 82.7129 9.92567 82.912 9.7926 83.0591L5.50584 87.772C5.37277 87.9172 5.19315 87.999 5.00572 87.9998Z" fill="#006769"/>
<path d="M0.718614 88C0.576705 88.0009 0.437765 87.9553 0.319508 87.8691C0.201251 87.7828 0.109035 87.6598 0.0546167 87.5157C0.000198696 87.3716 -0.0139558 87.213 0.0139579 87.06C0.0418715 86.907 0.110589 86.7667 0.211348 86.6568L3.99798 82.5016L0.211348 78.3464C0.0768129 78.1985 0.00123174 77.9979 0.00123174 77.7887C0.00123174 77.5795 0.0768129 77.3789 0.211348 77.231C0.345883 77.0831 0.528352 77 0.718614 77C0.908875 77 1.09134 77.0831 1.22588 77.231L5.51263 81.9439C5.6457 82.0911 5.72039 82.2902 5.72039 82.4977C5.72039 82.7052 5.6457 82.9043 5.51263 83.0514L1.22588 87.7643C1.15971 87.8386 1.0808 87.8976 0.993727 87.9381C0.906652 87.9785 0.813142 87.9996 0.718614 88Z" fill="#006769"/>
<path d="M1165.01 11C1164.86 11.0009 1164.72 10.9554 1164.61 10.8691C1164.49 10.7829 1164.4 10.6599 1164.34 10.5158C1164.29 10.3717 1164.27 10.213 1164.3 10.0601C1164.33 9.90711 1164.4 9.76674 1164.5 9.65687L1168.29 5.50166L1164.5 1.34645C1164.38 1.19619 1164.32 1.0029 1164.33 0.805215C1164.33 0.607528 1164.41 0.420002 1164.54 0.280112C1164.66 0.140221 1164.83 0.0582704 1165.01 0.0506346C1165.19 0.0429987 1165.37 0.110241 1165.51 0.238924L1169.79 4.95182C1169.93 5.09899 1170 5.29808 1170 5.50559C1170 5.7131 1169.93 5.91219 1169.79 6.05936L1165.51 10.7722C1165.37 10.9174 1165.19 10.9992 1165.01 11Z" fill="#006769"/>
<path d="M1160.72 11C1160.58 11.0009 1160.44 10.9553 1160.32 10.8691C1160.2 10.7828 1160.11 10.6598 1160.05 10.5157C1160 10.3716 1159.99 10.213 1160.01 10.06C1160.04 9.90704 1160.11 9.76668 1160.21 9.65681L1164 5.5016L1160.21 1.34639C1160.08 1.19848 1160 0.997873 1160 0.788698C1160 0.579522 1160.08 0.378914 1160.21 0.231004C1160.35 0.0830948 1160.53 1.55848e-09 1160.72 0C1160.91 -1.55848e-09 1161.09 0.0830948 1161.23 0.231004L1165.51 4.94391C1165.65 5.09108 1165.72 5.29016 1165.72 5.49767C1165.72 5.70519 1165.65 5.90427 1165.51 6.05144L1161.23 10.7643C1161.16 10.8386 1161.08 10.8976 1160.99 10.9381C1160.91 10.9785 1160.81 10.9996 1160.72 11Z" fill="#006769"/>
</g>
<defs>
<clipPath id="clip0_45_202">
<rect width="1170" height="88" fill="white"/>
</clipPath>
</defs>
</svg>
