<svg width="34" height="32" viewBox="0 0 34 32" fill="none" xmlns="http://www.w3.org/2000/svg">
<g clip-path="url(#clip0_47_234)">
<path d="M16.7692 32L23.7692 12.8H27L34 32H30.7692L29.1154 27.12H21.6538L20 32H16.7692ZM4.61538 27.2L2.46154 24.96L10.2308 16.88C9.33333 15.9467 8.51897 14.88 7.78769 13.68C7.05641 12.48 6.38359 11.12 5.76923 9.6H9C9.51282 10.64 10.0256 11.5467 10.5385 12.32C11.0513 13.0933 11.6667 13.8667 12.3846 14.64C13.2308 13.76 14.1092 12.5264 15.02 10.9392C15.9308 9.352 16.6164 7.83893 17.0769 6.4H0V3.2H10.7692V0H13.8462V3.2H24.6154V6.4H20.1538C19.6154 8.32 18.8077 10.2933 17.7308 12.32C16.6538 14.3467 15.5897 15.8933 14.5385 16.96L18.2308 20.88L17.0769 24.16L12.3846 19.16L4.61538 27.2ZM22.6154 24.32H28.1538L25.3846 16.16L22.6154 24.32Z" fill="white"/>
</g>
<defs>
<clipPath id="clip0_47_234">
<rect width="34" height="32" fill="white"/>
</clipPath>
</defs>
</svg>
